HIERARCHY
ROOT Hips
{
 OFFSET 0.000000 0.000000 0.000000
 CHANNELS 6 Xposition Yposition Zposition Yrotation Xrotation Zrotation
 JOINT Chest
 {
  OFFSET 0.000000 9.857222 0.000240
  CHANNELS 3 Yrotation Xrotation Zrotation
  JOINT Chest2
  {
   OFFSET 0.000000 10.876940 -0.000436
   CHANNELS 3 Yrotation Xrotation Zrotation
   JOINT Chest3
   {
    OFFSET 0.000000 9.827798 0.000000
    CHANNELS 3 Yrotation Xrotation Zrotation
    JOINT Chest4
    {
     OFFSET 0.000000 9.827798 0.000000
     CHANNELS 3 Yrotation Xrotation Zrotation
     JOINT Neck
     {
      OFFSET 0.000000 13.831992 0.000000
      CHANNELS 3 Yrotation Xrotation Zrotation
      JOINT Head
      {
       OFFSET 0.000000 9.147643 -0.001036
       CHANNELS 3 Yrotation Xrotation Zrotation
       End Site
       {
        OFFSET 0.000000 17.515799 -0.000541
       }
      }
     }
     JOINT RightCollar
     {
      OFFSET -3.001579 7.717577 0.000000
      CHANNELS 3 Yrotation Xrotation Zrotation
      JOINT RightShoulder
      {
       OFFSET -14.002642 0.000000 0.000000
       CHANNELS 3 Yrotation Xrotation Zrotation
       JOINT RightElbow
       {
        OFFSET -30.053852 0.000000 0.000000
        CHANNELS 3 Yrotation Xrotation Zrotation
        JOINT RightWrist
        {
         OFFSET -24.564923 0.000000 -0.000000
         CHANNELS 3 Yrotation Xrotation Zrotation
         End Site
         {
          OFFSET -18.334355 0.000000 0.000000
         }
        }
       }
      }
     }
     JOINT LeftCollar
     {
      OFFSET 3.001579 7.717577 0.000000
      CHANNELS 3 Yrotation Xrotation Zrotation
      JOINT LeftShoulder
      {
       OFFSET 14.002642 0.000000 0.000000
       CHANNELS 3 Yrotation Xrotation Zrotation
       JOINT LeftElbow
       {
        OFFSET 30.053852 0.000000 0.000000
        CHANNELS 3 Yrotation Xrotation Zrotation
        JOINT LeftWrist
        {
         OFFSET 24.564923 0.000000 -0.000000
         CHANNELS 3 Yrotation Xrotation Zrotation
         End Site
         {
          OFFSET 18.334355 0.000000 0.000000
         }
        }
       }
      }
     }
    }
   }
  }
 }
 JOINT RightHip
 {
  OFFSET -8.003235 -0.001175 -0.000120
  CHANNELS 3 Yrotation Xrotation Zrotation
  JOINT RightKnee
  {
   OFFSET 0.000000 -41.759727 0.000113
   CHANNELS 3 Yrotation Xrotation Zrotation
   JOINT RightAnkle
   {
    OFFSET 0.000000 -40.728748 0.000159
    CHANNELS 3 Yrotation Xrotation Zrotation
    JOINT RightToe
    {
     OFFSET 0.000000 -6.515296 14.732841
     CHANNELS 3 Yrotation Xrotation Zrotation
     End Site
     {
      OFFSET 0.000000 -1.502839 6.412115
     }
    }
   }
  }
 }
 JOINT LeftHip
 {
  OFFSET 8.003235 -0.001175 -0.000120
  CHANNELS 3 Yrotation Xrotation Zrotation
  JOINT LeftKnee
  {
   OFFSET 0.000000 -41.759727 0.000113
   CHANNELS 3 Yrotation Xrotation Zrotation
   JOINT LeftAnkle
   {
    OFFSET 0.000000 -40.728748 0.000159
    CHANNELS 3 Yrotation Xrotation Zrotation
    JOINT LeftToe
    {
     OFFSET 0.000000 -6.515296 14.732841
     CHANNELS 3 Yrotation Xrotation Zrotation
     End Site
     {
      OFFSET 0.000000 -1.502839 6.412115
     }
    }
   }
  }
 }
}
MOTION
Frames: 5
Frame Time: 0.016667
-0.853848 90.665156 18.532563 -31.337675 -16.084673 -1.097001 0.424478 6.251386 -1.507291 0.311421 2.736854 -0.717059 0.311421 2.736854 -0.717059 0.236735 2.052280 -0.539088 -2.128149 26.034654 2.726803 -4.417950 12.307591 5.351126 3.406222 4.915912 3.052652 72.286903 42.406225 5.074521 85.426604 55.588526 -22.727632 -9.025103 8.407987 -53.394281 -17.450246 8.559666 1.842159 -20.403063 20.161651 12.767363 -116.133652 35.776268 28.561953 -5.487780 12.382926 24.672570 -7.044524 27.549627 -4.487897 5.288327 -6.586557 3.794389 -0.694929 -5.489172 -0.086928 0.852259 0.083770 0.266662 1.968415 15.696811 5.742190 -3.217739 4.164629 -4.537567 1.206101 -3.077192 0.157168 -0.482611 -0.010504 -0.245144
-0.917713 90.683551 18.493059 -31.352285 -16.189308 -1.131253 0.394049 6.275708 -1.468375 0.304685 2.754208 -0.698804 0.304685 2.754208 -0.698804 0.231621 2.065311 -0.525376 -2.201589 26.158172 2.674738 -4.531897 12.538156 5.269930 3.609577 5.278543 2.982150 72.653902 41.343066 5.026541 87.228612 53.903575 -21.023781 -8.734123 9.097204 -53.988427 -17.261089 9.100757 1.712293 -20.752318 19.878984 12.505916 -116.237602 34.820174 28.201040 -5.379529 12.541979 25.135697 -7.337446 27.651814 -4.525212 5.466667 -6.609071 3.775309 -0.705742 -5.401116 -0.124353 0.901616 0.026173 0.289087 1.838103 15.775437 5.775425 -3.236046 4.225177 -4.511541 1.299333 -3.053302 0.100220 -0.500163 -0.061026 -0.249778
-0.958672 90.692450 18.442317 -31.401325 -16.198337 -1.152443 0.406329 6.217088 -1.433051 0.306982 2.738953 -0.678980 0.306982 2.738953 -0.678980 0.233238 2.053877 -0.510515 -2.266789 26.301469 2.590420 -4.623258 12.803001 5.128451 3.791183 5.772495 2.955878 73.251845 40.487814 5.580890 87.786872 52.936562 -19.529804 -8.506586 9.717250 -55.118646 -17.308182 9.574644 1.473041 -21.205964 19.682883 12.003695 -115.991109 34.045664 27.374790 -5.386701 12.759324 25.714756 -7.393261 27.633971 -4.468982 5.487419 -6.593628 3.770267 -0.746416 -5.361170 -0.172670 0.969854 0.014713 0.320434 1.777458 15.759277 5.751190 -3.194694 4.268219 -4.413486 1.387909 -3.044628 0.066981 -0.580504 -0.072264 -0.286029
-0.987876 90.698859 18.395740 -31.465501 -16.238781 -1.177112 0.383139 6.196526 -1.410997 0.309825 2.718873 -0.666445 0.309825 2.718873 -0.666445 0.235292 2.038820 -0.501119 -2.293183 26.426101 2.516750 -4.648813 13.031510 4.998032 4.034401 6.235171 2.975297 74.235380 40.130192 6.964098 86.877999 52.690730 -18.963646 -8.427732 10.658292 -56.554907 -17.219235 10.038412 1.317335 -21.756863 19.148960 11.672618 -115.705158 33.344021 26.157625 -5.414831 12.994436 26.294166 -7.426941 27.649827 -4.381235 5.521169 -6.582809 3.733955 -0.916706 -5.335683 -0.256528 1.158453 0.020773 0.402723 1.796163 15.786155 5.704418 -3.133311 4.291649 -4.248248 1.508278 -3.049625 0.044081 -0.716787 -0.058337 -0.350014
-1.032644 90.707010 18.359873 -31.504036 -16.349417 -1.207403 0.319129 6.220809 -1.430651 0.304377 2.705590 -0.675525 0.304377 2.705590 -0.675525 0.231233 2.028859 -0.507898 -2.271838 26.552643 2.496350 -4.601105 13.263858 4.952034 4.220392 6.556049 2.989872 75.540719 40.303572 8.909880 84.728217 52.908371 -19.653014 -8.328671 11.685789 -58.181367 -17.062964 10.398784 1.302535 -21.862405 19.021686 11.980407 -115.017193 32.918449 25.662111 -5.498812 13.143181 26.849835 -7.694264 27.763140 -4.410076 5.717567 -6.613684 3.704640 -1.004121 -5.299471 -0.312416 1.274655 0.017135 0.450887 1.805177 15.900492 5.733105 -3.037809 4.288224 -4.179752 1.506025 -3.026609 0.013382 -0.752550 -0.062102 -0.370696
